<svg xmlns="http://www.w3.org/2000/svg" viewBox="60 280 1320 240" preserveAspectRatio="xMidYMid meet"><path fill="#b6fe08" d="M 302.886719 490.800781 L 302.886719 308.054688 L 342.921875 308.054688 L 342.921875 378.105469 L 343.789062 378.105469 C 347.992188 371.441406 353.546875 366.386719 360.441406 362.984375 C 367.332031 359.582031 375.632812 357.878906 385.355469 357.878906 C 401.742188 357.878906 414.730469 362.878906 424.296875 372.898438 C 433.863281 382.898438 438.652344 396.320312 438.652344 413.140625 L 438.652344 490.800781 L 398.617188 490.800781 L 398.617188 420.972656 C 398.617188 411.980469 396.257812 405.171875 391.550781 400.519531 C 386.828125 395.886719 379.921875 393.558594 370.769531 393.558594 C 361.621094 393.558594 354.710938 395.886719 349.988281 400.519531 C 345.265625 405.15625 342.921875 411.980469 342.921875 420.972656 L 342.921875 490.800781 Z M 302.886719 490.800781 " fill-opacity="1" fill-rule="nonzero"/><path fill="#b6fe08" d="M 520.21875 493.195312 C 501.503906 493.195312 487.300781 488.371094 477.578125 478.734375 C 467.855469 469.097656 462.996094 455.921875 462.996094 439.253906 L 462.996094 360.277344 L 503.03125 360.277344 L 503.03125 431.40625 C 503.03125 440.261719 505.234375 446.824219 509.660156 451.09375 C 514.089844 455.367188 520.789062 457.519531 529.785156 457.519531 C 538.777344 457.519531 546.382812 455.15625 551.328125 450.453125 C 556.261719 445.746094 558.726562 438.957031 558.726562 430.105469 L 558.726562 360.277344 L 598.761719 360.277344 L 598.761719 451.648438 L 618.34375 451.648438 L 618.34375 490.800781 L 578.308594 490.800781 L 578.308594 469.046875 L 569.175781 469.046875 C 563.8125 476.875 557.421875 482.867188 550.027344 486.996094 C 542.632812 491.128906 532.699219 493.195312 520.21875 493.195312 Z M 520.21875 493.195312 " fill-opacity="1" fill-rule="nonzero"/><path fill="#b6fe08" d="M 723.398438 493.402344 C 712.375 493.402344 702.914062 491.269531 695.011719 486.980469 C 687.113281 482.710938 680.828125 476.71875 676.191406 469.027344 L 667.0625 469.027344 L 667.0625 490.78125 L 627.023438 490.78125 L 627.023438 451.632812 L 646.609375 451.632812 L 646.609375 308.054688 L 686.644531 308.054688 L 686.644531 377.011719 L 687.511719 377.011719 C 691.28125 370.917969 696.472656 366.179688 703.070312 362.757812 C 709.664062 359.355469 717.601562 357.65625 726.886719 357.65625 C 739.511719 357.65625 750.238281 360.484375 759.09375 366.144531 C 767.929688 371.804688 774.683594 379.738281 779.320312 389.964844 C 783.957031 400.191406 786.28125 412.046875 786.28125 425.539062 C 786.28125 439.027344 783.886719 450.660156 779.09375 460.886719 C 774.300781 471.113281 767.269531 479.082031 758 484.808594 C 748.710938 490.539062 737.183594 493.402344 723.417969 493.402344 Z M 715.777344 458.59375 C 726.074219 458.59375 733.730469 455.625 738.730469 449.671875 C 743.730469 443.734375 746.230469 435.675781 746.230469 425.519531 C 746.230469 415.363281 743.730469 407.324219 738.730469 401.371094 C 733.730469 395.433594 726.074219 392.449219 715.777344 392.449219 C 706.785156 392.449219 699.683594 394.949219 694.457031 399.949219 C 689.230469 404.949219 686.628906 411.875 686.628906 420.730469 L 686.628906 430.296875 C 686.628906 439.148438 689.230469 446.058594 694.457031 451.078125 C 699.683594 456.078125 706.785156 458.578125 715.777344 458.578125 Z M 715.777344 458.59375 " fill-opacity="1" fill-rule="nonzero"/><path fill="#b6fe08" d="M 826.09375 349.183594 C 820.136719 349.183594 815.066406 347.082031 810.867188 342.878906 C 806.664062 338.679688 804.5625 333.609375 804.5625 327.65625 C 804.5625 321.699219 806.664062 316.628906 810.867188 312.429688 C 815.066406 308.226562 820.136719 306.125 826.09375 306.125 C 832.046875 306.125 837.117188 308.226562 841.316406 312.429688 C 845.519531 316.628906 847.621094 321.71875 847.621094 327.65625 C 847.621094 333.59375 845.519531 338.679688 841.316406 342.878906 C 837.117188 347.082031 832.03125 349.183594 826.09375 349.183594 Z M 806.074219 490.800781 L 806.074219 360.277344 L 846.109375 360.277344 L 846.109375 490.800781 Z M 806.074219 490.800781 " fill-opacity="1" fill-rule="nonzero"/><path fill="#b6fe08" d="M 892.429688 493.402344 C 885.902344 493.402344 880.347656 491.113281 875.78125 486.546875 C 871.214844 481.980469 868.921875 476.425781 868.921875 469.898438 C 868.921875 463.367188 871.214844 457.8125 875.78125 453.246094 C 880.347656 448.679688 885.902344 446.390625 892.429688 446.390625 C 898.957031 446.390625 904.496094 448.679688 909.078125 453.246094 C 913.664062 457.8125 915.9375 463.367188 915.9375 469.898438 C 915.9375 476.425781 913.644531 481.964844 909.078125 486.546875 C 904.511719 491.113281 898.957031 493.402344 892.429688 493.402344 Z M 892.429688 493.402344 " fill-opacity="1" fill-rule="nonzero"/><path fill="#b6fe08" d="M 951.179688 490.800781 L 951.179688 391.597656 L 928.992188 391.597656 L 928.992188 360.277344 L 951.613281 360.277344 L 951.613281 339.390625 C 951.613281 328.660156 954.410156 320.761719 959.984375 315.675781 C 965.554688 310.605469 973.507812 308.054688 983.804688 308.054688 L 1021.652344 308.054688 L 1021.652344 339.375 L 990.765625 339.375 L 990.765625 360.257812 L 1019.046875 360.257812 L 1019.046875 391.578125 L 991.199219 391.578125 L 991.199219 490.78125 L 951.164062 490.78125 Z M 951.179688 490.800781 " fill-opacity="1" fill-rule="nonzero"/><path fill="#b6fe08" d="M 1092.363281 493.195312 C 1073.648438 493.195312 1059.445312 488.371094 1049.726562 478.734375 C 1040.003906 469.097656 1035.140625 455.921875 1035.140625 439.253906 L 1035.140625 360.277344 L 1075.175781 360.277344 L 1075.175781 431.40625 C 1075.175781 440.261719 1077.382812 446.824219 1081.808594 451.09375 C 1086.234375 455.367188 1092.9375 457.519531 1101.929688 457.519531 C 1110.925781 457.519531 1118.527344 455.15625 1123.476562 450.453125 C 1128.40625 445.746094 1130.871094 438.957031 1130.871094 430.105469 L 1130.871094 360.277344 L 1170.90625 360.277344 L 1170.90625 451.648438 L 1190.492188 451.648438 L 1190.492188 490.800781 L 1150.457031 490.800781 L 1150.457031 469.046875 L 1141.324219 469.046875 C 1135.957031 476.875 1129.570312 482.867188 1122.175781 486.996094 C 1114.777344 491.128906 1104.847656 493.195312 1092.363281 493.195312 Z M 1092.363281 493.195312 " fill-opacity="1" fill-rule="nonzero"/><path fill="#b6fe08" d="M 1214.414062 490.800781 L 1214.414062 399.425781 L 1194.832031 399.425781 L 1194.832031 360.277344 L 1234.867188 360.277344 L 1234.867188 382.03125 L 1244 382.03125 C 1249.226562 374.496094 1255.632812 368.574219 1263.253906 364.304688 C 1270.875 360.035156 1280.613281 357.878906 1292.507812 357.878906 C 1311.066406 357.878906 1325.320312 362.878906 1335.25 372.898438 C 1345.183594 382.898438 1350.148438 396.320312 1350.148438 413.140625 L 1350.148438 490.800781 L 1310.113281 490.800781 L 1310.113281 420.972656 C 1310.113281 411.980469 1307.75 405.171875 1303.046875 400.519531 C 1298.324219 395.886719 1291.414062 393.558594 1282.265625 393.558594 C 1273.113281 393.558594 1266.203125 395.886719 1261.480469 400.519531 C 1256.777344 405.15625 1254.417969 411.980469 1254.417969 420.972656 L 1254.417969 490.800781 L 1214.378906 490.800781 Z M 1214.414062 490.800781 " fill-opacity="1" fill-rule="nonzero"/><path fill="#b6fe08" d="M 231.167969 353.089844 L 278.527344 353.089844 L 278.527344 306.75 L 136.441406 306.75 L 136.441406 353.089844 Z M 231.167969 353.089844 " fill-opacity="1" fill-rule="nonzero"/><path fill="#b6fe08" d="M 136.441406 353.089844 L 89.0625 399.425781 L 89.0625 445.765625 L 136.441406 492.101562 L 231.167969 492.101562 L 278.527344 445.765625 L 278.527344 399.425781 L 231.167969 399.425781 L 231.167969 445.765625 L 136.441406 445.765625 Z M 136.441406 353.089844 " fill-opacity="1" fill-rule="nonzero"/></svg>
